<svg width="187" height="35" viewBox="0 0 187 35" fill="none" xmlns="http://www.w3.org/2000/svg">
<path d="M1.66 34.14C1.38 34.14 1.16 34.06 1 33.9C0.84 33.78 0.84 33.68 1 33.6C1.88 33.44 2.64 33.12 3.28 32.64C3.92 32.12 4.44 31.48 4.84 30.72C5.68 29.32 6.5 27.92 7.3 26.52C8.1 25.08 8.88 23.64 9.64 22.2L15.4 11.58C16.32 9.94 17.12 8.36 17.8 6.84C18.52 5.32 19.08 4.22 19.48 3.54C19.76 3.02 20.24 2.56 20.92 2.16C21.64 1.72 22.34 1.38 23.02 1.14C22.78 1.14 22.54 1.14 22.3 1.14C22.06 1.1 21.8 1.08 21.52 1.08C20.28 1.08 18.92 1.16 17.44 1.32C16 1.44 14.58 1.64 13.18 1.92C11.82 2.2 10.62 2.58 9.58 3.06C8.54 3.54 7.84 4.12 7.48 4.8C7.32 5.16 7.18 5.52 7.06 5.88C6.94 6.24 6.88 6.6 6.88 6.96C6.88 7.88 7.2 8.54 7.84 8.94C7.88 8.94 7.9 8.98 7.9 9.06C7.9 9.14 7.82 9.22 7.66 9.3C7.54 9.38 7.42 9.4 7.3 9.36C6.94 9.16 6.5 8.68 5.98 7.92C5.46 7.12 5.14 6.46 5.02 5.94C4.9 5.46 4.84 5.02 4.84 4.62C4.84 3.58 5.18 2.78 5.86 2.22C6.54 1.62 7.4 1.2 8.44 0.959998C9.48 0.679999 10.54 0.519999 11.62 0.479997C12.74 0.399998 13.72 0.359998 14.56 0.359998C15.84 0.359998 17.36 0.359998 19.12 0.359998C20.88 0.319999 22.5 0.299999 23.98 0.299999C24.34 0.299999 24.74 0.299999 25.18 0.299999C25.62 0.26 26.08 0.24 26.56 0.24C27.64 0.24 28.76 0.299999 29.92 0.419997C31.08 0.539998 32.14 0.799999 33.1 1.2C34.06 1.6 34.8 2.22 35.32 3.06C35.84 3.94 36.1 4.9 36.1 5.94C36.1 6.94 35.9 7.94 35.5 8.94C35.1 9.94 34.62 10.8 34.06 11.52C33.7 11.96 33.28 12.4 32.8 12.84C32.32 13.28 31.78 13.7 31.18 14.1C30.58 14.5 29.92 14.88 29.2 15.24C28.52 15.56 27.7 15.82 26.74 16.02C26.7 16.02 26.66 16.08 26.62 16.2C26.62 16.32 26.66 16.38 26.74 16.38C26.94 16.42 27.28 16.48 27.76 16.56C28.28 16.6 28.74 16.66 29.14 16.74C30.54 17.02 31.7 17.62 32.62 18.54C33.58 19.42 34.06 20.62 34.06 22.14C34.06 23.86 33.6 25.44 32.68 26.88C31.8 28.32 30.66 29.56 29.26 30.6C27.86 31.6 26.4 32.38 24.88 32.94C22.96 33.66 20.76 34.02 18.28 34.02C16.8 34.02 15.26 33.88 13.66 33.6C12.06 33.32 10.6 32.84 9.28 32.16C9 32 8.72 31.88 8.44 31.8C8.16 31.68 7.86 31.62 7.54 31.62C6.98 31.62 6.38 31.78 5.74 32.1C5.34 32.26 4.82 32.56 4.18 33C3.54 33.44 2.82 33.8 2.02 34.08C1.94 34.12 1.82 34.14 1.66 34.14ZM16.36 33.18C17.4 33.18 18.44 33.08 19.48 32.88C20.52 32.64 21.46 32.36 22.3 32.04C23.78 31.48 25.14 30.7 26.38 29.7C27.62 28.66 28.62 27.44 29.38 26.04C30.18 24.6 30.58 23 30.58 21.24C30.58 20.08 30.28 19.2 29.68 18.6C29.08 17.96 28.32 17.52 27.4 17.28C26.48 17.04 25.52 16.92 24.52 16.92C23.76 16.92 23.04 16.96 22.36 17.04C21.68 17.12 21.06 17.22 20.5 17.34C19.38 17.54 18.38 17.76 17.5 18C17.34 17.92 17.36 17.78 17.56 17.58C17.76 17.34 18.02 17.08 18.34 16.8C18.7 16.52 18.98 16.3 19.18 16.14C19.26 16.06 19.42 15.94 19.66 15.78C19.94 15.58 20.16 15.48 20.32 15.48C22.28 15.48 24.02 15.36 25.54 15.12C27.1 14.88 28.44 14.3 29.56 13.38C30.68 12.42 31.6 10.94 32.32 8.94C32.68 7.9 32.86 6.88 32.86 5.88C32.86 4.72 32.58 3.72 32.02 2.88C31.46 2 30.56 1.48 29.32 1.32C29.16 1.28 28.98 1.26 28.78 1.26C28.58 1.26 28.38 1.26 28.18 1.26C27.42 1.26 26.58 1.36 25.66 1.56C24.78 1.76 24.12 2.14 23.68 2.7C22.68 4.02 21.72 5.52 20.8 7.2C19.88 8.84 19 10.52 18.16 12.24C17.32 13.92 16.52 15.5 15.76 16.98C14.84 18.78 13.9 20.6 12.94 22.44C11.98 24.28 11.04 26.14 10.12 28.02C9.88 28.5 9.76 28.96 9.76 29.4C9.76 30.2 10.26 30.98 11.26 31.74C11.94 32.26 12.72 32.64 13.6 32.88C14.52 33.08 15.44 33.18 16.36 33.18ZM40.0914 33.18C39.6914 33.18 39.3514 33.1 39.0714 32.94C38.7914 32.78 38.6514 32.48 38.6514 32.04C38.6514 31.48 38.7914 30.82 39.0714 30.06C39.3914 29.3 39.7314 28.54 40.0914 27.78C40.4514 27.02 40.7514 26.4 40.9914 25.92C41.4714 25 41.9314 24.08 42.3714 23.16C42.8114 22.24 43.1914 21.46 43.5114 20.82C43.8314 20.22 43.9914 19.82 43.9914 19.62C43.9914 19.3 43.7514 19.3 43.2714 19.62C42.8314 19.94 42.4114 20.26 42.0114 20.58C41.1314 21.42 40.2114 22.42 39.2514 23.58C38.2914 24.7 37.5514 25.6 37.0314 26.28C36.9114 26.44 36.8114 26.52 36.7314 26.52C36.6514 26.52 36.6114 26.42 36.6114 26.22C36.6114 25.9 36.7114 25.6 36.9114 25.32C37.4714 24.52 38.1314 23.64 38.8914 22.68C39.6514 21.72 40.4314 20.8 41.2314 19.92C41.9914 19.12 42.7714 18.34 43.5714 17.58C44.3714 16.82 45.3914 16.44 46.6314 16.44C47.4714 16.44 47.8914 16.76 47.8914 17.4C47.8914 17.96 47.6514 18.6 47.1714 19.32C46.8914 19.76 46.4514 20.5 45.8514 21.54C45.2514 22.58 44.6314 23.72 43.9914 24.96C43.3914 26.16 42.8714 27.28 42.4314 28.32C41.9914 29.36 41.7714 30.12 41.7714 30.6C41.7714 31.16 42.0514 31.44 42.6114 31.44C43.0514 31.44 43.5914 31.22 44.2314 30.78C44.8714 30.3 45.5314 29.74 46.2114 29.1C47.4514 27.9 48.5714 26.6 49.5714 25.2C50.6114 23.76 51.4914 22.38 52.2114 21.06C52.9714 19.74 53.5714 18.66 54.0114 17.82C54.0914 17.66 54.1714 17.48 54.2514 17.28C54.3714 17.04 54.5514 16.9 54.7914 16.86C55.0314 16.82 55.5514 16.8 56.3514 16.8C57.1514 16.8 57.8914 16.64 58.5714 16.32H58.6914C58.8114 16.32 58.8714 16.38 58.8714 16.5C58.8714 16.82 58.6114 17.06 58.0914 17.22C57.6114 17.38 57.0514 17.86 56.4114 18.66C55.8114 19.46 55.2114 20.44 54.6114 21.6C54.0114 22.72 53.4714 23.88 52.9914 25.08C52.5114 26.28 52.1514 27.38 51.9114 28.38C51.6714 29.38 51.6114 30.12 51.7314 30.6C51.8914 31.16 52.1714 31.44 52.5714 31.44C53.0914 31.44 53.8114 31.12 54.7314 30.48C55.6914 29.84 56.6714 29.08 57.6714 28.2C58.6714 27.28 59.4914 26.44 60.1314 25.68C60.4114 25.36 60.6714 25.04 60.9114 24.72C61.1514 24.4 61.3114 24.2 61.3914 24.12C61.4314 24.16 61.4714 24.24 61.5114 24.36C61.5514 24.44 61.5714 24.52 61.5714 24.6C61.5314 24.88 61.4314 25.16 61.2714 25.44C61.1114 25.68 60.9314 25.9 60.7314 26.1C59.9714 27.1 59.0514 28.16 57.9714 29.28C56.9314 30.36 55.7914 31.28 54.5514 32.04C53.3514 32.8 52.1114 33.18 50.8314 33.18C50.4314 33.18 49.9714 33.08 49.4514 32.88C48.9714 32.68 48.7314 32.24 48.7314 31.56C48.7314 31.04 48.8714 30.34 49.1514 29.46C49.4314 28.54 49.7314 27.64 50.0514 26.76C50.4114 25.84 50.7114 25.16 50.9514 24.72C50.4314 25.48 49.7914 26.34 49.0314 27.3C48.3114 28.22 47.5714 29.04 46.8114 29.76C45.8114 30.72 44.7314 31.54 43.5714 32.22C42.4514 32.86 41.2914 33.18 40.0914 33.18ZM60.6461 33.9C60.4861 33.9 60.4861 33.72 60.6461 33.36C60.8461 33 61.0261 32.6 61.1861 32.16C61.3861 31.72 61.5861 31.24 61.7861 30.72C62.1861 29.76 62.6261 28.68 63.1061 27.48C63.5861 26.28 64.0461 25.12 64.4861 24C64.9261 22.84 65.3061 21.86 65.6261 21.06C65.9861 20.22 66.2261 19.68 66.3461 19.44C65.7861 20.04 65.1061 20.8 64.3061 21.72C63.5461 22.6 62.8261 23.46 62.1461 24.3C61.4661 25.14 60.9461 25.8 60.5861 26.28C60.4661 26.44 60.3661 26.52 60.2861 26.52C60.2061 26.52 60.1661 26.42 60.1661 26.22C60.1661 25.9 60.2661 25.6 60.4661 25.32C61.2261 24.36 62.0661 23.28 62.9861 22.08C63.9461 20.88 64.8061 19.78 65.5661 18.78C66.3261 17.74 66.8061 17.06 67.0061 16.74C67.4461 16.66 68.0861 16.54 68.9261 16.38C69.8061 16.22 70.4061 16 70.7261 15.72C70.8461 15.6 70.9661 15.54 71.0861 15.54C71.1661 15.54 71.2061 15.62 71.2061 15.78C71.2461 15.9 71.2061 16.04 71.0861 16.2C70.8461 16.48 70.4261 17.14 69.8261 18.18C69.2661 19.18 68.6461 20.3 67.9661 21.54C67.3261 22.78 66.7261 23.9 66.1661 24.9C66.8061 24.14 67.4261 23.42 68.0261 22.74C68.6661 22.06 69.1061 21.58 69.3461 21.3C69.8261 20.82 70.4861 20.22 71.3261 19.5C72.1661 18.78 73.0461 18.12 73.9661 17.52C74.8861 16.92 75.6861 16.58 76.3661 16.5C76.5261 16.46 76.6661 16.44 76.7861 16.44C76.9061 16.44 77.0261 16.44 77.1461 16.44C77.9061 16.44 78.2861 16.72 78.2861 17.28C78.2861 17.52 78.2261 17.8 78.1061 18.12C77.9861 18.44 77.8261 18.76 77.6261 19.08C77.3861 19.56 76.9861 20.32 76.4261 21.36C75.8661 22.36 75.3661 23.28 74.9261 24.12L77.7461 21.3C78.2261 20.82 78.8861 20.22 79.7261 19.5C80.5661 18.78 81.4461 18.12 82.3661 17.52C83.2861 16.92 84.0861 16.58 84.7661 16.5C84.9261 16.46 85.0661 16.44 85.1861 16.44C85.3461 16.44 85.4661 16.44 85.5461 16.44C86.4261 16.44 86.8661 16.76 86.8661 17.4C86.8661 17.88 86.6061 18.52 86.0861 19.32C85.8061 19.76 85.3661 20.5 84.7661 21.54C84.1661 22.58 83.5461 23.72 82.9061 24.96C82.3061 26.16 81.7861 27.28 81.3461 28.32C80.9061 29.36 80.6861 30.12 80.6861 30.6C80.6861 31.16 80.9661 31.44 81.5261 31.44C82.0461 31.44 82.7061 31.14 83.5061 30.54C84.3461 29.9 85.1861 29.14 86.0261 28.26C86.9061 27.38 87.6661 26.54 88.3061 25.74C88.5861 25.42 88.8461 25.1 89.0861 24.78C89.3661 24.42 89.5261 24.22 89.5661 24.18C89.6461 24.26 89.6861 24.4 89.6861 24.6C89.6861 24.88 89.5861 25.16 89.3861 25.44C89.2261 25.68 89.0661 25.9 88.9061 26.1C88.1461 27.1 87.2661 28.14 86.2661 29.22C85.3061 30.3 84.2461 31.22 83.0861 31.98C81.9261 32.7 80.6861 33.12 79.3661 33.24C78.9661 33.28 78.5661 33.2 78.1661 33C77.7661 32.8 77.5661 32.48 77.5661 32.04C77.5661 31.48 77.7061 30.82 77.9861 30.06C78.3061 29.3 78.6461 28.54 79.0061 27.78C79.4061 27.02 79.7061 26.4 79.9061 25.92C80.6261 24.52 81.2861 23.2 81.8861 21.96C82.4861 20.72 82.9061 19.84 83.1461 19.32C83.2661 19.08 83.3261 18.88 83.3261 18.72C83.3261 18.44 83.1061 18.42 82.6661 18.66C82.2261 18.9 81.6861 19.26 81.0461 19.74C80.4461 20.22 79.8861 20.7 79.3661 21.18C78.8461 21.62 78.5061 21.92 78.3461 22.08C77.6661 22.76 76.8461 23.68 75.8861 24.84C74.9661 26 74.1061 27.22 73.3061 28.5C72.5061 29.74 71.9461 30.9 71.6261 31.98C71.2261 32.34 70.8461 32.52 70.4861 32.52C70.2061 32.52 69.9661 32.42 69.7661 32.22C69.6061 32.02 69.5261 31.78 69.5261 31.5C69.5261 30.7 69.7661 29.76 70.2461 28.68C70.7661 27.56 71.1861 26.64 71.5061 25.92C72.2261 24.52 72.8861 23.2 73.4861 21.96C74.0861 20.72 74.5061 19.84 74.7461 19.32C74.8661 19.08 74.9261 18.88 74.9261 18.72C74.9261 18.44 74.7061 18.42 74.2661 18.66C73.8261 18.9 73.2861 19.26 72.6461 19.74C72.0461 20.22 71.4861 20.7 70.9661 21.18C70.4461 21.62 70.1061 21.92 69.9461 22.08C68.9861 23.08 68.0861 24.1 67.2461 25.14C66.4461 26.18 65.7661 27.3 65.2061 28.5C64.8861 29.22 64.5461 30.02 64.1861 30.9C63.8261 31.78 63.5261 32.52 63.2861 33.12C62.7661 33.16 62.2461 33.3 61.7261 33.54C61.2061 33.78 60.8461 33.9 60.6461 33.9ZM100.95 10.08C100.39 10.08 99.9897 9.9 99.7497 9.54C99.5897 9.34 99.5097 9.08 99.5097 8.76C99.5097 8.12 99.8097 7.6 100.41 7.2C100.85 6.96 101.25 6.84 101.61 6.84C102.21 6.84 102.63 7.02 102.87 7.38C103.03 7.58 103.11 7.84 103.11 8.16C103.11 8.8 102.79 9.32 102.15 9.72C101.79 9.96 101.39 10.08 100.95 10.08ZM90.5097 33.18C90.1097 33.18 89.7697 33.1 89.4897 32.94C89.2497 32.78 89.1297 32.48 89.1297 32.04C89.1297 31.48 89.2697 30.82 89.5497 30.06C89.8697 29.3 90.2097 28.54 90.5697 27.78C90.9697 27.02 91.2697 26.4 91.4697 25.92C91.7497 25.36 92.0897 24.64 92.4897 23.76C92.9297 22.84 93.3297 21.98 93.6897 21.18C94.0897 20.34 94.3697 19.76 94.5297 19.44C93.9697 20.04 93.2897 20.8 92.4897 21.72C91.7297 22.6 91.0097 23.46 90.3297 24.3C89.6497 25.14 89.1297 25.8 88.7697 26.28C88.6497 26.44 88.5497 26.52 88.4697 26.52C88.3897 26.52 88.3497 26.42 88.3497 26.22C88.3497 25.9 88.4497 25.6 88.6497 25.32C89.4097 24.36 90.2497 23.28 91.1697 22.08C92.1297 20.88 92.9897 19.78 93.7497 18.78C94.5097 17.74 94.9897 17.06 95.1897 16.74C95.6297 16.66 96.2697 16.54 97.1097 16.38C97.9897 16.22 98.5897 16 98.9097 15.72C99.0297 15.6 99.1497 15.54 99.2697 15.54C99.3497 15.54 99.3897 15.62 99.3897 15.78C99.4297 15.9 99.3897 16.04 99.2697 16.2C99.0297 16.48 98.6097 17.16 98.0097 18.24C97.4097 19.32 96.7697 20.52 96.0897 21.84C95.4497 23.12 94.8497 24.28 94.2897 25.32C93.7297 26.4 93.2497 27.44 92.8497 28.44C92.4497 29.44 92.2497 30.16 92.2497 30.6C92.2497 31.16 92.5297 31.44 93.0897 31.44C93.6097 31.44 94.2697 31.12 95.0697 30.48C95.9097 29.84 96.7497 29.08 97.5897 28.2C98.4297 27.28 99.1697 26.44 99.8097 25.68C100.01 25.44 100.25 25.16 100.53 24.84C100.85 24.48 101.05 24.26 101.13 24.18C101.21 24.26 101.25 24.4 101.25 24.6C101.21 24.88 101.11 25.16 100.95 25.44C100.79 25.68 100.63 25.9 100.47 26.1C99.6297 27.14 98.7097 28.22 97.7097 29.34C96.7097 30.42 95.6097 31.34 94.4097 32.1C93.2097 32.82 91.9097 33.18 90.5097 33.18ZM122.149 33.72C120.869 33.72 119.569 33.68 118.249 33.6C116.929 33.56 115.629 33.46 114.349 33.3C111.509 33.06 110.089 32.14 110.089 30.54C110.089 29.74 110.409 28.78 111.049 27.66C112.569 24.9 114.129 22.16 115.729 19.44C117.329 16.68 118.909 13.92 120.469 11.16C120.949 10.28 121.569 9.18 122.329 7.86C123.089 6.54 123.849 5.28 124.609 4.08C124.969 3.52 125.489 2.96 126.169 2.4C126.849 1.8 127.549 1.42 128.269 1.26C127.429 1.3 126.349 1.36 125.029 1.44C123.749 1.52 122.429 1.68 121.069 1.92C119.749 2.12 118.549 2.46 117.469 2.94C116.429 3.38 115.689 4 115.249 4.8C115.089 5.16 114.949 5.52 114.829 5.88C114.709 6.24 114.649 6.6 114.649 6.96C114.649 7.88 114.969 8.54 115.609 8.94C115.649 8.94 115.669 8.98 115.669 9.06C115.669 9.14 115.589 9.22 115.429 9.3C115.309 9.38 115.189 9.4 115.069 9.36C114.709 9.16 114.269 8.68 113.749 7.92C113.229 7.12 112.909 6.46 112.789 5.94C112.669 5.46 112.609 5.02 112.609 4.62C112.609 3.58 112.949 2.78 113.629 2.22C114.309 1.62 115.169 1.2 116.209 0.959998C117.249 0.679999 118.309 0.519999 119.389 0.479997C120.469 0.399998 121.429 0.359998 122.269 0.359998C124.389 0.359998 126.509 0.339998 128.629 0.299999C130.749 0.219998 132.849 0.179997 134.929 0.179997C135.849 0.179997 136.749 0.179997 137.629 0.179997C138.549 0.179997 139.449 0.219998 140.329 0.299999C141.329 0.339998 142.009 0.539998 142.369 0.899998C142.769 1.26 142.969 1.7 142.969 2.22C142.969 2.86 142.749 3.6 142.309 4.44C141.909 5.24 141.529 5.98 141.169 6.66C141.009 6.98 140.749 7.22 140.389 7.38C140.029 7.5 139.889 7.38 139.969 7.02C140.169 6.22 140.269 5.42 140.269 4.62C140.269 3.9 140.129 3.26 139.849 2.7C139.609 2.1 139.129 1.68 138.409 1.44C137.729 1.24 136.669 1.14 135.229 1.14C134.709 1.14 134.169 1.16 133.609 1.2C133.089 1.2 132.549 1.22 131.989 1.26C130.389 1.38 129.309 1.8 128.749 2.52C127.429 4.36 126.149 6.36 124.909 8.52C123.709 10.64 122.549 12.66 121.429 14.58C121.389 14.66 121.369 14.76 121.369 14.88C121.369 15.12 121.549 15.24 121.909 15.24C123.309 15.24 124.809 15.26 126.409 15.3C128.049 15.34 129.489 15.34 130.729 15.3C131.009 15.26 131.429 15.22 131.989 15.18C132.589 15.14 133.189 15.06 133.789 14.94C134.429 14.82 134.909 14.68 135.229 14.52C135.429 14.4 135.549 14.34 135.589 14.34C135.829 14.34 135.829 14.58 135.589 15.06C135.389 15.5 135.029 15.96 134.509 16.44C134.029 16.88 133.469 17.1 132.829 17.1C130.869 17.1 129.209 17.06 127.849 16.98C126.529 16.9 125.049 16.86 123.409 16.86C123.009 16.86 122.589 16.86 122.149 16.86C121.709 16.86 121.229 16.88 120.709 16.92C120.309 16.96 120.029 17.12 119.869 17.4C119.469 18.12 119.109 18.78 118.789 19.38C118.509 19.98 118.149 20.68 117.709 21.48C117.389 22.08 116.989 22.86 116.509 23.82C116.069 24.74 115.669 25.7 115.309 26.7C114.949 27.66 114.769 28.5 114.769 29.22C114.769 30.46 115.349 31.32 116.509 31.8C117.669 32.24 119.089 32.48 120.769 32.52C123.089 32.52 125.369 32.3 127.609 31.86C129.889 31.38 132.009 30.6 133.969 29.52C135.969 28.4 137.709 26.9 139.189 25.02C139.269 24.94 139.329 24.9 139.369 24.9C139.489 24.9 139.569 25.02 139.609 25.26C139.649 25.46 139.629 25.62 139.549 25.74C138.309 27.26 137.109 28.74 135.949 30.18C134.789 31.58 133.629 32.46 132.469 32.82C131.629 33.06 130.269 33.26 128.389 33.42C126.509 33.62 124.429 33.72 122.149 33.72ZM139.162 33.9C139.002 33.9 139.002 33.72 139.162 33.36C139.362 33 139.542 32.6 139.702 32.16C139.902 31.72 140.102 31.24 140.302 30.72C140.702 29.76 141.142 28.68 141.622 27.48C142.102 26.28 142.562 25.12 143.002 24C143.442 22.84 143.822 21.86 144.142 21.06C144.502 20.22 144.742 19.68 144.862 19.44C144.302 20.04 143.622 20.8 142.822 21.72C142.062 22.6 141.342 23.46 140.662 24.3C139.982 25.14 139.462 25.8 139.102 26.28C138.982 26.44 138.882 26.52 138.802 26.52C138.722 26.52 138.682 26.42 138.682 26.22C138.682 25.9 138.782 25.6 138.982 25.32C139.742 24.36 140.582 23.28 141.502 22.08C142.462 20.88 143.322 19.78 144.082 18.78C144.842 17.74 145.322 17.06 145.522 16.74C145.962 16.66 146.602 16.54 147.442 16.38C148.322 16.22 148.922 16 149.242 15.72C149.362 15.6 149.482 15.54 149.602 15.54C149.682 15.54 149.722 15.62 149.722 15.78C149.762 15.9 149.722 16.04 149.602 16.2C149.362 16.48 148.942 17.14 148.342 18.18C147.782 19.18 147.162 20.3 146.482 21.54C145.842 22.78 145.242 23.9 144.682 24.9C145.322 24.14 145.942 23.42 146.542 22.74C147.182 22.06 147.622 21.58 147.862 21.3C148.342 20.82 149.002 20.22 149.842 19.5C150.682 18.78 151.562 18.12 152.482 17.52C153.402 16.92 154.202 16.58 154.882 16.5C155.042 16.46 155.182 16.44 155.302 16.44C155.422 16.44 155.542 16.44 155.662 16.44C156.422 16.44 156.802 16.72 156.802 17.28C156.802 17.52 156.742 17.8 156.622 18.12C156.502 18.44 156.342 18.76 156.142 19.08C155.902 19.56 155.502 20.32 154.942 21.36C154.382 22.36 153.882 23.28 153.442 24.12L156.262 21.3C156.742 20.82 157.402 20.22 158.242 19.5C159.082 18.78 159.962 18.12 160.882 17.52C161.802 16.92 162.602 16.58 163.282 16.5C163.442 16.46 163.582 16.44 163.702 16.44C163.862 16.44 163.982 16.44 164.062 16.44C164.942 16.44 165.382 16.76 165.382 17.4C165.382 17.88 165.122 18.52 164.602 19.32C164.322 19.76 163.882 20.5 163.282 21.54C162.682 22.58 162.062 23.72 161.422 24.96C160.822 26.16 160.302 27.28 159.862 28.32C159.422 29.36 159.202 30.12 159.202 30.6C159.202 31.16 159.482 31.44 160.042 31.44C160.562 31.44 161.222 31.14 162.022 30.54C162.862 29.9 163.702 29.14 164.542 28.26C165.422 27.38 166.182 26.54 166.822 25.74C167.102 25.42 167.362 25.1 167.602 24.78C167.882 24.42 168.042 24.22 168.082 24.18C168.162 24.26 168.202 24.4 168.202 24.6C168.202 24.88 168.102 25.16 167.902 25.44C167.742 25.68 167.582 25.9 167.422 26.1C166.662 27.1 165.782 28.14 164.782 29.22C163.822 30.3 162.762 31.22 161.602 31.98C160.442 32.7 159.202 33.12 157.882 33.24C157.482 33.28 157.082 33.2 156.682 33C156.282 32.8 156.082 32.48 156.082 32.04C156.082 31.48 156.222 30.82 156.502 30.06C156.822 29.3 157.162 28.54 157.522 27.78C157.922 27.02 158.222 26.4 158.422 25.92C159.142 24.52 159.802 23.2 160.402 21.96C161.002 20.72 161.422 19.84 161.662 19.32C161.782 19.08 161.842 18.88 161.842 18.72C161.842 18.44 161.622 18.42 161.182 18.66C160.742 18.9 160.202 19.26 159.562 19.74C158.962 20.22 158.402 20.7 157.882 21.18C157.362 21.62 157.022 21.92 156.862 22.08C156.182 22.76 155.362 23.68 154.402 24.84C153.482 26 152.622 27.22 151.822 28.5C151.022 29.74 150.462 30.9 150.142 31.98C149.742 32.34 149.362 32.52 149.002 32.52C148.722 32.52 148.482 32.42 148.282 32.22C148.122 32.02 148.042 31.78 148.042 31.5C148.042 30.7 148.282 29.76 148.762 28.68C149.282 27.56 149.702 26.64 150.022 25.92C150.742 24.52 151.402 23.2 152.002 21.96C152.602 20.72 153.022 19.84 153.262 19.32C153.382 19.08 153.442 18.88 153.442 18.72C153.442 18.44 153.222 18.42 152.782 18.66C152.342 18.9 151.802 19.26 151.162 19.74C150.562 20.22 150.002 20.7 149.482 21.18C148.962 21.62 148.622 21.92 148.462 22.08C147.502 23.08 146.602 24.1 145.762 25.14C144.962 26.18 144.282 27.3 143.722 28.5C143.402 29.22 143.062 30.02 142.702 30.9C142.342 31.78 142.042 32.52 141.802 33.12C141.282 33.16 140.762 33.3 140.242 33.54C139.722 33.78 139.362 33.9 139.162 33.9ZM175.145 33.18C174.745 33.18 174.405 33.1 174.125 32.94C173.845 32.78 173.705 32.48 173.705 32.04C173.705 31.48 173.845 30.84 174.125 30.12C174.405 29.4 174.725 28.7 175.085 28.02C175.445 27.3 175.765 26.72 176.045 26.28C174.645 27.76 173.185 29.16 171.665 30.48C170.905 31.12 170.065 31.72 169.145 32.28C168.225 32.84 167.245 33.12 166.205 33.12C165.805 33.12 165.525 33 165.365 32.76C165.205 32.48 165.125 32.16 165.125 31.8C165.125 31.6 165.145 31.46 165.185 31.38C165.385 29.82 165.885 28.2 166.685 26.52C167.485 24.84 168.465 23.26 169.625 21.78C170.785 20.3 171.965 19.1 173.165 18.18C174.525 17.14 176.025 16.62 177.665 16.62H184.565C184.765 16.62 184.865 16.7 184.865 16.86C184.865 17.18 184.685 17.34 184.325 17.34C183.925 17.34 183.525 17.6 183.125 18.12C182.725 18.6 182.425 19 182.225 19.32C181.945 19.76 181.505 20.5 180.905 21.54C180.305 22.58 179.685 23.72 179.045 24.96C178.445 26.16 177.925 27.28 177.485 28.32C177.045 29.36 176.825 30.12 176.825 30.6C176.825 31.16 177.105 31.44 177.665 31.44C178.265 31.44 178.945 31.16 179.705 30.6C180.465 30.04 181.225 29.36 181.985 28.56C182.785 27.72 183.505 26.9 184.145 26.1C184.825 25.26 185.365 24.6 185.765 24.12C186.005 24.36 185.985 24.7 185.705 25.14C185.465 25.54 185.245 25.86 185.045 26.1C184.245 27.14 183.325 28.22 182.285 29.34C181.245 30.42 180.105 31.34 178.865 32.1C177.665 32.82 176.425 33.18 175.145 33.18ZM168.665 31.08C169.145 31.08 169.805 30.74 170.645 30.06C171.525 29.34 172.465 28.46 173.465 27.42C174.465 26.34 175.405 25.22 176.285 24.06C177.165 22.86 177.885 21.78 178.445 20.82C179.045 19.82 179.345 19.06 179.345 18.54C179.345 18.1 179.205 17.8 178.925 17.64C178.685 17.48 178.365 17.4 177.965 17.4C177.325 17.4 176.625 17.64 175.865 18.12C175.145 18.56 174.565 19 174.125 19.44C173.645 19.88 173.065 20.58 172.385 21.54C171.745 22.46 171.105 23.48 170.465 24.6C169.825 25.72 169.285 26.8 168.845 27.84C168.405 28.88 168.185 29.72 168.185 30.36C168.185 30.84 168.345 31.08 168.665 31.08Z" fill="#705A4C"/>
</svg>
